#!OML:ASF X:\für Bonn\!DataBase\2005_08_12_Daniel\c3d\Daniel.ASF
:FULLY-SPECIFIED
:DEGREES
294
root 2.7725 17.6815 17.3435 -4.39586 6.69726 -0.135805
lowerback 4.68163 -1.85636 -0.180735
upperback 2.20094 -2.50125 -2.90866
thorax -0.483602 -1.23942 -2.75994
lowerneck 3.98901 -6.77559 -7.91071
upperneck 19.3437 -10.1881 6.34764
head 5.93247 -5.16451 2.87515
rclavicle 2.90474e-014 2.3059e-014
rhumerus -50.1561 2.87311 -93.4359
rradius 119.707
rwrist -38.1132
rhand -12.092 16.3569
rfingers 7.12502
rthumb 13.9684 -13.1538
lclavicle 2.90474e-014 2.3059e-014
lhumerus -35.1832 33.6591 70.335
lradius 20.2142
lwrist -32.4406
lhand -10.5937 -6.14255
lfingers 7.12502
lthumb 15.4118 23.2629
rfemur 7.99495 22.653 22.063
rtibia 14.041
rfoot -24.9952 -26.8886
rtoes -11.7388
lfemur 1.70453 -16.0306 -20.2247
ltibia 25.4232
lfoot -22.577 13.8018
ltoes -11.9205
295
root 2.77182 17.6814 17.3416 -4.40534 6.58421 -0.136692
lowerback 4.69302 -1.89671 -0.20988
upperback 2.20879 -2.55609 -2.88302
thorax -0.48206 -1.26709 -2.714
lowerneck 4.02155 -6.78179 -7.86688
upperneck 19.4312 -10.2004 6.31556
head 5.95199 -5.17031 2.85789
rclavicle -1.9133e-015 -3.18055e-014
rhumerus -50.7617 2.9633 -94.0287
rradius 119.567
rwrist -37.6984
rhand -12.6978 16.5798
rfingers 7.12502
rthumb 13.3845 -12.9703
lclavicle -1.9133e-015 -3.18055e-014
lhumerus -35.1111 33.5824 70.5269
lradius 20.2117
lwrist -32.3598
lhand -10.5958 -6.21191
lfingers 7.12502
lthumb 15.4098 23.1937
rfemur 7.97176 22.7342 22.0716
rtibia 14.0598
rfoot -24.9599 -26.8707
rtoes -11.7538
lfemur 1.75187 -16.0779 -20.2551
ltibia 25.4079
lfoot -22.6133 13.9505
ltoes -11.8957
296
root 2.77042 17.6813 17.3405 -4.4113 6.42709 -0.146681
lowerback 4.67798 -1.94586 -0.278743
upperback 2.23577 -2.62291 -2.81177
thorax -0.442714 -1.30087 -2.59951
lowerneck 4.02465 -6.763 -7.89655
upperneck 19.4923 -10.1696 6.25688
head 5.96751 -5.16109 2.84545
rclavicle 1.16041e-014 5.56597e-015
rhumerus -51.2043 3.13185 -94.5133
rradius 119.345
rwrist -37.361
rhand -13.1999 16.8839
rfingers 7.12502
rthumb 12.9005 -12.6974
lclavicle 1.16041e-014 5.56597e-015
lhumerus -35.0837 33.6717 70.706
lradius 20.2248
lwrist -32.3477
lhand -10.5228 -6.30022
lfingers 7.12502
lthumb 15.4801 23.1
rfemur 7.93184 22.7829 22.0728
rtibia 14.0802
rfoot -24.8816 -26.7893
rtoes -11.7884
lfemur 1.80627 -16.1181 -20.2802
ltibia 25.3932
lfoot -22.6658 14.1319
ltoes -11.8648
297
root 2.77009 17.6809 17.338 -4.42788 6.31502 -0.162039
lowerback 4.69446 -1.98945 -0.283201
upperback 2.25235 -2.68099 -2.7943
thorax -0.436373 -1.32994 -2.57573
lowerneck 4.02845 -6.7558 -7.80781
upperneck 19.5908 -10.1564 6.18783
head 5.98917 -5.15289 2.80957
rclavicle 1.08835e-014 2.14687e-014
rhumerus -51.5944 3.2497 -95.0509
rradius 119.088
rwrist -37.0298
rhand -13.6993 17.1512
rfingers 7.12502
rthumb 12.4191 -12.4599
lclavicle 1.08835e-014 2.14687e-014
lhumerus -34.9867 33.5214 70.9208
lradius 20.2118
lwrist -32.2187
lhand -10.4869 -6.41368
lfingers 7.12502
lthumb 15.5147 22.9839
rfemur 7.90102 22.8015 22.0781
rtibia 14.0977
rfoot -24.8111 -26.7176
rtoes -11.6954
lfemur 1.85419 -16.174 -20.2985
ltibia 25.3815
lfoot -22.7021 14.286
ltoes -11.838
298
root 2.76901 17.6814 17.3363 -4.41531 6.17605 -0.196824
lowerback 4.6519 -2.03087 -0.295834
upperback 2.27285 -2.73504 -2.73714
thorax -0.390615 -1.35704 -2.50899
lowerneck 4.06057 -6.74074 -7.80394
upperneck 19.6278 -10.1336 6.14277
head 5.9916 -5.14522 2.797
rclavicle 4.91992e-015 3.33958e-014
rhumerus -51.9161 3.40224 -95.5484
rradius 118.808
rwrist -36.6454
rhand -14.2285 17.4965
rfingers 7.12502
rthumb 11.9088 -12.1449
lclavicle 4.91992e-015 3.33958e-014
lhumerus -34.9167 33.5667 71.103
lradius 20.1836
lwrist -32.2152
lhand -10.4168 -6.50087
lfingers 7.12502
lthumb 15.5822 22.8914
rfemur 7.83635 22.8111 22.0902
rtibia 14.1149
rfoot -24.7219 -26.6193
rtoes -11.7309
lfemur 1.86388 -16.1353 -20.2693
ltibia 25.3713
lfoot -22.7111 14.4033
ltoes -11.9167
299
root 2.76824 17.6814 17.3347 -4.42869 6.0391 -0.234491
lowerback 4.6629 -2.06544 -0.2971
upperback 2.27685 -2.78102 -2.69485
thorax -0.392442 -1.38024 -2.46204
lowerneck 4.10239 -6.72987 -7.75896
upperneck 19.6766 -10.1179 6.09401
head 5.9943 -5.13859 2.77658
rclavicle -1.6201e-014 -1.11319e-014
rhumerus -52.223 3.57291 -95.9995
rradius 118.527
rwrist -36.385
rhand -14.7676 17.8832
rfingers 7.12502
rthumb 11.3889 -11.7875
lclavicle -1.6201e-014 -1.11319e-014
lhumerus -34.8794 33.3777 71.3606
lradius 20.2307
lwrist -32.0903
lhand -10.3676 -6.55173
lfingers 7.12502
lthumb 15.6297 22.8369
rfemur 7.81338 22.901 22.1384
rtibia 14.1255
rfoot -24.6878 -26.5963
rtoes -11.7602
lfemur 1.9135 -16.1856 -20.264
ltibia 25.3646
lfoot -22.7626 14.5713
ltoes -11.8865
300
root 2.76784 17.6812 17.3329 -4.44067 5.93244 -0.23397
lowerback 4.67618 -2.11454 -0.332038
upperback 2.28168 -2.84775 -2.65619
thorax -0.394003 -1.414 -2.39881
lowerneck 4.12168 -6.7001 -7.75153
upperneck 19.7506 -10.0757 6.04565
head 6.00882 -5.12115 2.76273
rclavicle -3.46134e-014 1.27222e-014
rhumerus -52.4892 3.77774 -96.4297
rradius 118.265
rwrist -36.1746
rhand -15.2342 18.1912
rfingers 7.12502
rthumb 10.9388 -11.5038
lclavicle -3.46134e-014 1.27222e-014
lhumerus -34.8718 33.3986 71.5015
lradius 20.2083
lwrist -32.197
lhand -10.2919 -6.68123
lfingers 7.12502
lthumb 15.7026 22.7017
rfemur 7.79995 22.9357 22.134
rtibia 14.128
rfoot -24.6291 -26.5432
rtoes -11.782
lfemur 1.95531 -16.2314 -20.2972
ltibia 25.3618
lfoot -22.8037 14.7097
ltoes -11.8614
301
root 2.76667 17.6813 17.3306 -4.45182 5.79694 -0.258525
lowerback 4.66263 -2.13952 -0.34311
upperback 2.30787 -2.88036 -2.61931
thorax -0.358438 -1.43032 -2.35415
lowerneck 4.11864 -6.68971 -7.67911
upperneck 19.8354 -10.0547 5.96814
head 6.02736 -5.11051 2.72701
rclavicle 4.02787e-014 2.46493e-014
rhumerus -52.6719 3.98915 -96.8475
rradius 117.983
rwrist -35.9237
rhand -15.792 18.5625
rfingers 7.12502
rthumb 10.4008 -11.1602
lclavicle 4.02787e-014 2.46493e-014
lhumerus -34.7638 33.2331 71.7522
lradius 20.173
lwrist -32.1508
lhand -10.2909 -6.77899
lfingers 7.12502
lthumb 15.7035 22.6038
rfemur 7.76906 23.0026 22.1604
rtibia 14.1407
rfoot -24.5655 -26.4992
rtoes -11.8058
lfemur 1.99277 -16.208 -20.2831
ltibia 25.3528
lfoot -22.8363 14.8068
ltoes -11.8416
302
root 2.76618 17.681 17.3283 -4.43742 5.66514 -0.282241
lowerback 4.64515 -2.17305 -0.339144
upperback 2.30517 -2.92456 -2.59482
thorax -0.35213 -1.45255 -2.32954
lowerneck 4.1547 -6.65594 -7.60964
upperneck 19.8774 -10.0082 5.92675
head 6.02551 -5.08669 2.70666
rclavicle 2.5519e-014 6.36111e-015
rhumerus -52.8973 4.22989 -97.2741
rradius 117.724
rwrist -35.7001
rhand -16.3004 18.9618
rfingers 7.12502
rthumb 9.91035 -10.7849
lclavicle 2.5519e-014 6.36111e-015
lhumerus -34.7369 33.1215 71.9264
lradius 20.1887
lwrist -32.158
lhand -10.2292 -6.8237
lfingers 7.12502
lthumb 15.7629 22.5544
rfemur 7.69615 23.0369 22.1556
rtibia 14.1604
rfoot -24.5093 -26.4041
rtoes -11.7721
lfemur 2.00715 -16.2549 -20.2843
ltibia 25.3422
lfoot -22.8756 14.9692
ltoes -11.8108
303
root 2.76515 17.681 17.3263 -4.44607 5.5236 -0.294432
lowerback 4.63248 -2.19978 -0.373318
upperback 2.33178 -2.96037 -2.54639
thorax -0.314884 -1.47068 -2.26
lowerneck 4.14128 -6.62571 -7.53559
upperneck 19.9259 -9.95249 5.82236
head 6.03043 -5.06049 2.66402
rclavicle 3.01904e-014 1.59028e-014
rhumerus -53.0436 4.55268 -97.6542
rradius 117.444
rwrist -35.4368
rhand -16.8902 19.4073
rfingers 7.12502
rthumb 9.34129 -10.3657
lclavicle 3.01904e-014 1.59028e-014
lhumerus -34.6669 33.1422 72.1154
lradius 20.1557
lwrist -32.2802
lhand -10.2382 -6.82236
lfingers 7.12502
lthumb 15.7543 22.5565
rfemur 7.64655 23.0105 22.1379
rtibia 14.176
rfoot -24.3921 -26.2728
rtoes -11.8246
lfemur 2.04997 -16.2473 -20.2911
ltibia 25.3318
lfoot -22.9152 15.0885
ltoes -11.7862
304
root 2.76516 17.6813 17.3235 -4.45343 5.38862 -0.307506
lowerback 4.63513 -2.221 -0.36924
upperback 2.34645 -2.98814 -2.5312
thorax -0.301729 -1.48454 -2.24552
lowerneck 4.14192 -6.60302 -7.43149
upperneck 19.9982 -9.91314 5.73778
head 6.0411 -5.0393 2.62229
rclavicle 4.39811e-015 2.78299e-014
rhumerus -53.1908 4.83843 -98.0402
rradius 117.152
rwrist -35.157
rhand -17.4951 19.8818
rfingers 7.12502
rthumb 8.75757 -9.91652
lclavicle 4.39811e-015 2.78299e-014
lhumerus -34.5822 32.9496 72.3353
lradius 20.1542
lwrist -32.2894
lhand -10.2135 -6.85072
lfingers 7.12502
lthumb 15.778 22.5262
rfemur 7.59655 22.9938 22.1154
rtibia 14.1862
rfoot -24.3061 -26.1373
rtoes -11.8272
lfemur 2.08924 -16.2937 -20.313
ltibia 25.325
lfoot -22.9712 15.2548
ltoes -11.7531
305
root 2.76447 17.681 17.3209 -4.47864 5.25395 -0.331535
lowerback 4.64543 -2.24543 -0.356901
upperback 2.37136 -3.01967 -2.50536
thorax -0.282292 -1.50022 -2.22448
lowerneck 4.10958 -6.56234 -7.36006
upperneck 20.064 -9.85315 5.69189
head 6.05715 -5.0074 2.59802
rclavicle -1.53064e-014 -1.59028e-015
rhumerus -53.315 5.16102 -98.378
rradius 116.892
rwrist -34.9524
rhand -17.9889 20.3129
rfingers 7.12502
rthumb 8.28108 -9.50476
lclavicle -1.53064e-014 -1.59028e-015
lhumerus -34.4954 32.82 72.5448
lradius 20.1342
lwrist -32.3635
lhand -10.2009 -6.82882
lfingers 7.12502
lthumb 15.7902 22.5472
rfemur 7.56784 23.0063 22.1307
rtibia 14.2114
rfoot -24.2226 -26.0447
rtoes -11.8657
lfemur 2.14489 -16.2577 -20.3022
ltibia 25.3105
lfoot -23.0009 15.3398
ltoes -11.734
306
root 2.76339 17.6816 17.3186 -4.48815 5.15331 -0.346611
lowerback 4.66653 -2.27362 -0.379344
upperback 2.36489 -3.05839 -2.46024
thorax -0.298515 -1.52003 -2.16255
lowerneck 4.12592 -6.51953 -7.34305
upperneck 20.1382 -9.7877 5.61751
head 6.06919 -4.97931 2.57554
rclavicle -7.1811e-015 1.19271e-014
rhumerus -53.4535 5.47595 -98.6877
rradius 116.635
rwrist -34.7343
rhand -18.5185 20.6947
rfingers 7.12502
rthumb 7.76987 -9.14252
lclavicle -7.1811e-015 1.19271e-014
lhumerus -34.4606 32.5374 72.8191
lradius 20.1779
lwrist -32.2051
lhand -10.2438 -6.7627
lfingers 7.12502
lthumb 15.7489 22.6165
rfemur 7.53324 23.0339 22.1325
rtibia 14.2292
rfoot -24.1984 -25.9579
rtoes -11.7933
lfemur 2.17897 -16.3004 -20.3105
ltibia 25.3005
lfoot -23.0328 15.4684
ltoes -11.7081
